<svg id="Candela_s_Products_icon" data-name="Candela&apos;s_Products_icon" xmlns="http://www.w3.org/2000/svg" xmlns:xlink="http://www.w3.org/1999/xlink" width="30.046" height="30.053" viewBox="0 0 30.046 30.053">
  <defs>
    <clipPath id="clip-path">
      <rect id="Rectangle_41" data-name="Rectangle 41" width="30.046" height="30.053" fill="#6e2b61"/>
    </clipPath>
  </defs>
  <g id="Group_63" data-name="Group 63" clip-path="url(#clip-path)">
    <path id="Path_84" data-name="Path 84" d="M2,0H27.933c.009.016.015.043.027.046a2.487,2.487,0,0,1,2.085,2.639q0,5.795,0,11.589,0,5.589,0,11.179a2.52,2.52,0,0,1-1.886,2.519c-.247.067-.583-.043-.729.166a2.6,2.6,0,0,0-.215.783,1.5,1.5,0,0,1-1.466,1.128c-.489.005-.978.008-1.467,0a1.482,1.482,0,0,1-1.4-1.059,3.345,3.345,0,0,1-.159-.623c-.029-.28-.164-.323-.42-.323q-5.324.014-10.649.006c-1.33,0-2.66.006-3.99-.006-.222,0-.308.065-.339.277a4.635,4.635,0,0,1-.158.623,1.482,1.482,0,0,1-1.45,1.1c-.469.006-.939,0-1.408,0a1.5,1.5,0,0,1-1.485-1.141c-.054-.2-.108-.4-.141-.6s-.107-.262-.32-.274A2.483,2.483,0,0,1,.1,26.251C.083,26.184.1,26.088,0,26.06V2c.079-.013.069-.086.084-.136A2.5,2.5,0,0,1,1.859.085C1.909.07,1.982.08,2,0M15.02,1H2.667A1.521,1.521,0,0,0,1,2.678Q1,14.019,1,25.361A1.53,1.53,0,0,0,2.688,27.05H27.363a1.53,1.53,0,0,0,1.683-1.695q0-11.327,0-22.654a1.531,1.531,0,0,0-1.7-1.7H15.02M3.649,28.051c.055.219.1.415.155.61a.489.489,0,0,0,.515.389c.459,0,.917,0,1.376,0a.478.478,0,0,0,.486-.307c.069-.181.1-.374.156-.561.029-.108-.021-.133-.119-.132-.848,0-1.7,0-2.568,0m22.73,0h-2.2c-.51,0-.51,0-.375.5.105.391.241.5.635.5.273,0,.546,0,.82,0,.9,0,.932-.029,1.112-.9a.981.981,0,0,0,.009-.1" transform="translate(0 -0.001)" fill="#6e2b61"/>
    <path id="Path_85" data-name="Path 85" d="M210.263,35.52h-4.81a1.035,1.035,0,0,1-1.173-1.168q0-3.843,0-7.686a1.032,1.032,0,0,1,1.169-1.171h9.679a1.035,1.035,0,0,1,1.175,1.167q0,3.843,0,7.686a1.039,1.039,0,0,1-1.171,1.172h-4.869M210.3,26.5c-1.574,0-3.149.006-4.723-.006-.245,0-.3.061-.3.3.01,2.347,0,4.694.008,7.042,0,.17-.073.452.039.487.192.059.352-.156.494-.3a1.37,1.37,0,0,0,.29-.47,2.4,2.4,0,0,0,.17-.886c0-.724-.007-1.448.007-2.171a1.5,1.5,0,0,1,2.832-.68,1.637,1.637,0,0,1,.17.793c0,.46-.007.919,0,1.379a.478.478,0,0,0,.4.505.472.472,0,0,0,.539-.257.76.76,0,0,0,.058-.4q0-1.364,0-2.729a1.491,1.491,0,0,1,.829-1.44,1.509,1.509,0,0,1,2.184,1.354.994.994,0,0,0,1.052.986c.235,0,.471-.015.7.005s.252-.07.25-.265q-.014-1.482,0-2.963c0-.222-.043-.3-.284-.294-1.574.012-3.149.006-4.723.006m-3.608,8.022h5.471c.967,0,1.935,0,2.9,0,.163,0,.244-.017.242-.216-.01-1.036-.008-2.072,0-3.108,0-.161-.054-.2-.2-.192-.283.01-.567.007-.85,0a2,2,0,0,1-1.891-1.48c-.059-.211-.036-.428-.091-.636a.483.483,0,0,0-.489-.384.477.477,0,0,0-.477.429,2.1,2.1,0,0,0-.012.292q0,1.3,0,2.61a2.063,2.063,0,0,1-.062.581,1.5,1.5,0,0,1-2.946-.411c-.014-.478,0-.958,0-1.437a.5.5,0,0,0-.5-.561.51.51,0,0,0-.5.569c-.007.44-.011.88,0,1.319a3.94,3.94,0,0,1-.591,2.621" transform="translate(-188.258 -23.496)" fill="#6e2b61"/>
    <path id="Path_86" data-name="Path 86" d="M31.5,102.2a6.006,6.006,0,1,1-6,6.041,6.035,6.035,0,0,1,6-6.041m-2.908,10.057c.088-.146.165-.294.26-.427a.5.5,0,0,1,.864.48,1.717,1.717,0,0,1-.183.332c-.076.108-.032.147.066.187a4.723,4.723,0,0,0,1.414.352c0-.178-.01-.335,0-.489a.5.5,0,0,1,.993.006,2.244,2.244,0,0,1,0,.293c-.008.137,0,.206.186.175a6.69,6.69,0,0,0,.91-.216c.446-.145.445-.147.237-.571-.009-.018-.022-.033-.029-.051a.5.5,0,0,1,.221-.655.484.484,0,0,1,.645.164c.093.132.17.276.256.417a4.555,4.555,0,0,0,.8-.716c.111-.122.288-.244.282-.392s-.235-.165-.355-.258l-.023-.018a.506.506,0,0,1-.155-.649.491.491,0,0,1,.656-.2,1.569,1.569,0,0,1,.282.155c.13.095.176.041.226-.086a5.464,5.464,0,0,0,.28-.952c.08-.411.083-.41-.318-.425a1.122,1.122,0,0,1-.175-.016.458.458,0,0,1-.407-.463.453.453,0,0,1,.365-.5.807.807,0,0,1,.319-.025c.265.039.293-.092.241-.3-.062-.246-.114-.494-.185-.737-.049-.166-.07-.388-.21-.463-.119-.063-.261.125-.4.183l-.027.011a.5.5,0,0,1-.5-.857,2.4,2.4,0,0,1,.3-.177c.1-.051.125-.1.046-.2a4.952,4.952,0,0,0-1.046-1.011c-.1.162-.173.311-.271.444a.48.48,0,0,1-.626.147.485.485,0,0,1-.234-.622,1.226,1.226,0,0,1,.152-.282c.105-.144.1-.216-.089-.286a5.568,5.568,0,0,0-1.338-.329,3.663,3.663,0,0,1-.044.616.434.434,0,0,1-.481.35c-.606-.068-.467-.564-.5-.967a4.718,4.718,0,0,0-1.53.426c.164.351.548.738.053,1.052-.552.351-.7-.228-.943-.542a4.882,4.882,0,0,0-.858.785c-.274.311-.273.311.08.54.033.021.067.041.1.065a.506.506,0,0,1,.133.655.482.482,0,0,1-.635.194.936.936,0,0,1-.23-.126c-.183-.152-.263-.065-.318.118-.075.252-.168.5-.229.755-.122.509-.115.51.389.56a.66.66,0,0,1,.087.013.493.493,0,0,1,0,.968,1.3,1.3,0,0,1-.35.019c-.182-.017-.215.061-.186.22a6.463,6.463,0,0,0,.234.936c.135.4.137.4.511.193a1.114,1.114,0,0,1,.1-.053.5.5,0,0,1,.636.2.491.491,0,0,1-.137.652.848.848,0,0,1-.224.137c-.242.086-.194.2-.058.351a5.381,5.381,0,0,0,.969.907" transform="translate(-23.501 -94.183)" fill="#6e2b61"/>
    <path id="Path_87" data-name="Path 87" d="M31.487,30.489q-2.169,0-4.339,0a1.518,1.518,0,0,1-1.675-1.667c0-.6,0-1.192,0-1.788a1.5,1.5,0,0,1,1.555-1.553q4.456-.007,8.912,0A1.5,1.5,0,0,1,37.5,27.032c.005.606,0,1.212,0,1.818a1.509,1.509,0,0,1-1.642,1.639c-1.456,0-2.912,0-4.368,0m-2.6-1.005c.944,0,1.831,0,2.717,0,.141,0,.172-.107.227-.194q.814-1.3,1.626-2.6c.038-.061.113-.113.074-.208q-1.29,0-2.579,0a.26.26,0,0,0-.267.122c-.583.944-1.173,1.884-1.8,2.883m4.01,0c1.072,0,2.1.007,3.121,0a.472.472,0,0,0,.475-.524q.012-.968,0-1.936a.5.5,0,0,0-.536-.533c-.342-.01-.685,0-1.027,0a.24.24,0,0,0-.238.123c-.585.944-1.175,1.886-1.795,2.879m-3.312-3c-.9,0-1.751-.008-2.6,0-.332,0-.509.221-.512.585,0,.6,0,1.191,0,1.786,0,.238.036.47.277.564a1.854,1.854,0,0,0,.975.029c.019,0,.032-.046.047-.071l1.813-2.9" transform="translate(-23.474 -23.479)" fill="#6e2b61"/>
    <path id="Path_88" data-name="Path 88" d="M210.288,231.545q-2.186,0-4.371,0a1.507,1.507,0,0,1-1.642-1.638q0-2.377,0-4.753a1.5,1.5,0,0,1,1.608-1.612q4.4,0,8.8,0a1.5,1.5,0,0,1,1.614,1.607q0,2.391,0,4.782a1.5,1.5,0,0,1-1.609,1.613q-2.2,0-4.4,0m-.03-1h4.4c.466,0,.639-.171.639-.635q0-2.361,0-4.722c0-.471-.167-.643-.629-.643q-4.384,0-8.769,0c-.45,0-.623.172-.623.618q0,2.376,0,4.752c0,.46.175.63.642.63h4.341" transform="translate(-188.252 -206.007)" fill="#6e2b61"/>
    <path id="Path_89" data-name="Path 89" d="M319.313,173.886a1.5,1.5,0,0,1,1.479-1.507,1.5,1.5,0,1,1-1.479,1.507m1.486.493a.5.5,0,1,0,.007-.992.5.5,0,0,0-.007.992" transform="translate(-294.269 -158.859)" fill="#6e2b61"/>
    <path id="Path_90" data-name="Path 90" d="M207.293,173.881a1.5,1.5,0,1,1-1.505-1.511,1.5,1.5,0,0,1,1.505,1.511m-1,0a.491.491,0,0,0-.494-.5.5.5,0,0,0-.015.993.49.49,0,0,0,.509-.489" transform="translate(-188.271 -158.85)" fill="#6e2b61"/>
    <path id="Path_91" data-name="Path 91" d="M264.82,173.888a1.5,1.5,0,1,1-1.5-1.519,1.509,1.509,0,0,1,1.5,1.519m-2-.019a.5.5,0,1,0,.509-.491.5.5,0,0,0-.509.491" transform="translate(-241.287 -158.85)" fill="#6e2b61"/>
    <path id="Path_92" data-name="Path 92" d="M34.766,313.837c-.724,0-1.447,0-2.171,0-.375,0-.586-.189-.581-.506a.5.5,0,0,1,.57-.493q2.171,0,4.342,0c.366,0,.59.2.585.511s-.222.486-.574.488c-.724,0-1.447,0-2.171,0" transform="translate(-29.503 -288.299)" fill="#6e2b61"/>
    <path id="Path_93" data-name="Path 93" d="M33.243,288.3c-.244,0-.488.007-.731,0a.5.5,0,1,1,0-.994q.745-.014,1.491,0a.5.5,0,1,1,0,.994c-.253.009-.507,0-.76,0" transform="translate(-29.503 -264.765)" fill="#6e2b61"/>
    <path id="Path_94" data-name="Path 94" d="M78.5,151.154a1.8,1.8,0,0,1-1.754-1.129,1.712,1.712,0,0,1,.492-1.94,11.3,11.3,0,0,1,2.3-1.377.776.776,0,0,1,1.1.787,9.1,9.1,0,0,1-.74,2.756,1.593,1.593,0,0,1-1.4.9m1.073-3.334a7.187,7.187,0,0,0-1.659,1.018.719.719,0,0,0-.238.812.774.774,0,0,0,.66.5.715.715,0,0,0,.724-.444,10.186,10.186,0,0,0,.513-1.889" transform="translate(-70.621 -135.131)" fill="#6e2b61"/>
    <path id="Path_95" data-name="Path 95" d="M239.739,256.339h-2.93a.482.482,0,0,1-.524-.375.473.473,0,0,1,.231-.553.788.788,0,0,1,.427-.076h4.4c.449,0,.9,0,1.348,0,.371,0,.586.2.582.512s-.21.479-.569.489c-.068,0-.137,0-.205,0h-2.754" transform="translate(-217.736 -235.308)" fill="#6e2b61"/>
    <path id="Path_96" data-name="Path 96" d="M257.374,281.92c-.469,0-.938,0-1.406,0-.368,0-.6-.2-.6-.5s.229-.5.6-.5q1.406-.007,2.813,0c.37,0,.6.2.6.5s-.226.5-.6.5c-.469.006-.937,0-1.406,0" transform="translate(-235.342 -258.88)" fill="#6e2b61"/>
  </g>
</svg>
