<svg xmlns="http://www.w3.org/2000/svg" width="13.34" height="24.685" viewBox="0 0 13.34 24.685"><path id="Facebook" d="M4.115,24.685a.621.621,0,0,1-.4-.664c.007-3.27,0-6.54.009-9.81,0-.21-.038-.283-.269-.28-.94.015-1.88.007-2.82.006C.174,13.937,0,13.766,0,13.3q0-1.892,0-3.784c0-.461.181-.638.644-.639.956,0,1.912,0,2.868,0,.165,0,.215-.037.214-.209,0-1.028-.03-2.058.016-3.085A5.879,5.879,0,0,1,5.186,1.819,5.342,5.342,0,0,1,8.176.149,7.489,7.489,0,0,1,9.731,0l2.94,0c.493,0,.667.173.667.665q0,1.723,0,3.446c0,.5-.165.658-.664.665-.819.011-1.639-.041-2.457.034a1.257,1.257,0,0,0-1.093.59,1.545,1.545,0,0,0-.185.739c-.012.859,0,1.719-.015,2.579,0,.164.078.155.19.155q1.7,0,3.4,0c.5,0,.674.168.674.657q0,1.88,0,3.76c0,.484-.166.647-.655.647-1.124,0-2.249.006-3.374,0-.2,0-.232.059-.232.24.005,3.27,0,6.54.007,9.81a.673.673,0,0,1-.382.7Z" transform="translate(0 0)"></path></svg>