	<svg id="Instagram" xmlns="http://www.w3.org/2000/svg" width="26.129" height="26.137" viewBox="0 0 26.129 26.137"> <g id="Icon" transform="translate(0 0)"> <path id="Path_78" data-name="Path 78" d="M34.541.041c-.054,0-.119.042-.15-.042h.153c.017.011.023.02.016.029a.025.025,0,0,1-.019.013" transform="translate(-27.738 0.001)"></path> <path id="Path_79" data-name="Path 79" d="M35.166.041c0-.014,0-.028,0-.042h.1c-.02.052-.06.052-.1.042" transform="translate(-28.363 0.001)"></path> <path id="Path_80" data-name="Path 80" d="M99.329.043c-.044.008-.084.005-.1-.043h.1c.016.009.021.018.017.028s-.009.015-.015.015" transform="translate(-80.03 0)"></path> <path id="Path_81" data-name="Path 81" d="M99.755.043c0-.014,0-.028,0-.043h.1c.016.009.022.018.017.028s-.01.015-.015.015h-.1" transform="translate(-80.455 0)"></path> <path id="Path_82" data-name="Path 82" d="M100.281.043c0-.014,0-.029,0-.043h.1c-.013.062-.058.05-.1.043" transform="translate(-80.88 0)"></path> <path id="Path_83" data-name="Path 83" d="M134.83,34.626c-.006-.042-.015-.085.043-.1v.1c-.015.024-.03.023-.043,0" transform="translate(-108.743 -27.847)"></path> <path id="Path_84" data-name="Path 84" d="M134.831,35.041l.043,0v.1c-.05-.02-.051-.06-.043-.1" transform="translate(-108.745 -28.262)"></path> <path id="Path_85" data-name="Path 85" d="M134.831,99.464c-.008-.044-.007-.084.043-.1v.1c-.013.021-.028.023-.043,0" transform="translate(-108.745 -80.139)"></path> <path id="Path_86" data-name="Path 86" d="M134.825,99.889l.043,0v.1c-.06-.013-.05-.058-.043-.1" transform="translate(-108.739 -80.564)"></path> <path id="Path_87" data-name="Path 87" d="M26.129,6.475c-.073-.287-.041-.587-.113-.876A7.343,7.343,0,0,0,20.875.206,8.7,8.7,0,0,0,19.6,0h-.1c-.03.033-.071.024-.109.026H19.3c-.038,0-.079.007-.109-.026H6.908C6.876.034,6.835.024,6.8.026S6.695.041,6.653,0H6.5c-.288.072-.588.038-.878.108A7.231,7.231,0,0,0,1.859,2.318,6.817,6.817,0,0,0,0,7.011q0,6,0,12a6.641,6.641,0,0,0,.23,1.862A7.192,7.192,0,0,0,2.71,24.586a7.036,7.036,0,0,0,4.582,1.551c3.908-.025,7.816-.011,11.724-.006a6.673,6.673,0,0,0,2.538-.455,7.233,7.233,0,0,0,4.009-3.819,6.377,6.377,0,0,0,.566-2.177v-.255c-.031-.028-.025-.066-.026-.1s-.005-.074.026-.1V6.883c-.031-.028-.025-.066-.026-.1s-.005-.074.026-.1ZM22.908,21.722a4.818,4.818,0,0,1-4.079,2.066q-5.748.012-11.5,0A4.868,4.868,0,0,1,2.6,20.467a4.993,4.993,0,0,1-.263-1.7q0-5.709,0-11.419A4.885,4.885,0,0,1,5.674,2.574a4.964,4.964,0,0,1,1.677-.258q5.722,0,11.444,0A4.879,4.879,0,0,1,23.55,5.638a5.149,5.149,0,0,1,.264,1.752q0,2.829,0,5.658t0,5.684a4.9,4.9,0,0,1-.908,2.989" transform="translate(0 0)"></path> <path id="Path_88" data-name="Path 88" d="M96.737,22.582a1.693,1.693,0,1,1-1.692,1.705,1.707,1.707,0,0,1,1.692-1.705" transform="translate(-76.658 -18.213)"></path> <path id="Path_89" data-name="Path 89" d="M39.555,32.693a6.728,6.728,0,1,0,6.723,6.732,6.756,6.756,0,0,0-6.723-6.732m.009,11.135a4.407,4.407,0,1,1,4.393-4.415,4.416,4.416,0,0,1-4.393,4.415" transform="translate(-26.473 -26.368)"></path> </g></svg>