<svg id="Linked_in" data-name="Linked in" xmlns="http://www.w3.org/2000/svg" width="24.885" height="24.841" viewBox="0 0 24.885 24.841"> <g id="Icon" transform="translate(0 0)"> <path id="Path_793" data-name="Path 793" d="M.409,8.472H5.568V25.065H.409ZM2.989.224A2.991,2.991,0,1,1,0,3.215,2.992,2.992,0,0,1,2.989.224" transform="translate(0 -0.224)"></path> <path id="Path_794" data-name="Path 794" d="M89.163,80.021H94.11V82.29h.071a5.418,5.418,0,0,1,4.879-2.68c5.222,0,6.186,3.435,6.186,7.9v9.1h-5.155V88.544c0-1.925-.033-4.4-2.68-4.4-2.684,0-3.093,2.1-3.093,4.261v8.207H89.163Z" transform="translate(-80.361 -71.773)"></path> </g></svg>