<svg id="Meet_kent_icon" xmlns="http://www.w3.org/2000/svg" xmlns:xlink="http://www.w3.org/1999/xlink" width="35.779" height="31.562" viewBox="0 0 35.779 31.562">
  <defs>
    <clipPath id="clip-path">
      <rect id="Rectangle_10" data-name="Rectangle 10" width="35.779" height="31.562" fill="#6e2b61"/>
    </clipPath>
  </defs>
  <g id="Group_23" data-name="Group 23" clip-path="url(#clip-path)">
    <path id="Path_17" data-name="Path 17" d="M0,2.5a2.64,2.64,0,0,0,.222-.674A2.551,2.551,0,0,1,2.443.071,7.768,7.768,0,0,1,3.489.018C10.757.016,18.026.037,25.294,0c1.689-.008,2.547.5,3.285,2.329a4.584,4.584,0,0,1,.242.763c.063.3.137.371.438.187a14.639,14.639,0,0,1,4.418-1.84c.475-.107.96-.178,1.444-.242a.545.545,0,0,1,.653.647,13.951,13.951,0,0,1-1.756,5.325.523.523,0,1,1-.918-.494,21.381,21.381,0,0,0,.915-1.993,11.349,11.349,0,0,0,.625-2.341,7.114,7.114,0,0,0-1.734.394,16.825,16.825,0,0,0-5.7,3.289,19.765,19.765,0,0,0-5.141,6.536,13.751,13.751,0,0,0-.864,2.381c.165-.009.222-.14.306-.224q4.39-4.382,8.775-8.77c.405-.405.694-.462.952-.187s.185.532-.209.926L22.01,15.7a1.666,1.666,0,0,0,.819-.173,17.39,17.39,0,0,0,6-3.592A20.408,20.408,0,0,0,31.9,8.555c.252-.35.563-.434.827-.246s.275.511.021.862a21.1,21.1,0,0,1-2.9,3.255.619.619,0,0,0-.222.511c.009,2.737-.008,5.475.014,8.212.014,1.677.095,3.352.272,5.022.036.341.13.458.5.45,1.234-.028,2.469-.011,3.7-.01.655,0,.762.077.874.726a4.672,4.672,0,0,1-.155,2.445A2.526,2.526,0,0,1,32.622,31.5a8.631,8.631,0,0,1-1.116.052c-7.268,0-14.537-.012-21.805.014a2.7,2.7,0,0,1-2.924-1.98,11.7,11.7,0,0,1-.759-3.213c-.084-.681-.131-1.367-.194-2.051a1.509,1.509,0,0,1-.012-.209.547.547,0,0,1,.517-.556.526.526,0,0,1,.523.509c.087.892.138,1.788.277,2.674a10.115,10.115,0,0,0,.712,2.685A1.493,1.493,0,0,0,9.625,30.46,1.665,1.665,0,0,0,11.112,28.9a4.72,4.72,0,0,0-.048-1.425c-.116-.644.063-.87.711-.87q8.387,0,16.773.006c.3,0,.376-.042.337-.372a64.412,64.412,0,0,1-.309-7.536c0-1.6.006-3.192.01-4.788,0-.113,0-.225,0-.395-.712.524-1.383,1.015-2.1,1.44a14.355,14.355,0,0,1-5.643,2.089.625.625,0,0,0-.391.2q-.671.687-1.358,1.36c-.3.292-.6.32-.828.09s-.211-.524.087-.827c.441-.448.873-.908,1.34-1.328.268-.242.2-.551.274-.834.024-.094-.065-.106-.137-.108-.093,0-.186,0-.28,0H9.453c-.575,0-.826-.158-.831-.519s.258-.532.82-.532c3.471,0,6.942,0,10.413.008a.409.409,0,0,0,.48-.353c.133-.478.309-.945.476-1.447h-.388q-5.486,0-10.972,0a2.2,2.2,0,0,1-.415-.033.509.509,0,0,1,.058-1.005c.127-.011.256-.01.384-.01q5.748,0,11.5.006a.485.485,0,0,0,.51-.3c.253-.495.543-.97.827-1.469-.114-.08-.245-.039-.362-.04q-6.255,0-12.51,0c-.558,0-.824-.175-.818-.536s.256-.513.8-.513q6.674,0,13.349.005a.578.578,0,0,0,.521-.251,21.5,21.5,0,0,1,4.485-4.374c.1-.07.229-.12.187-.295a6.118,6.118,0,0,0-.876-2.22,1.57,1.57,0,0,0-1.381-.662c-2.784.009-5.568,0-8.352,0H5.1c.025.227.18.361.267.526a10.208,10.208,0,0,1,.917,3.058A36.389,36.389,0,0,1,6.71,9.659c.12,4.03-.013,8.061.066,12.091a1.336,1.336,0,0,1-.014.313.516.516,0,0,1-1.02-.009,2.02,2.02,0,0,1-.014-.348c-.083-3.716.048-7.432-.054-11.147a48.914,48.914,0,0,0-.353-5.33c-.033-.237-.119-.275-.327-.274-1.328.008-2.656,0-3.984,0-.718,0-.765-.039-.93-.748C.066,4.149.094,4.065,0,4.041Zm11.583,28h.442q9.708,0,19.417,0c.314,0,.628-.013.941-.033a1.592,1.592,0,0,0,1.545-1.272,3.8,3.8,0,0,0,.079-1.281c-.016-.21-.094-.259-.3-.259q-10.634.009-21.267,0c-.232,0-.29.059-.271.289a3.75,3.75,0,0,1-.586,2.558M3.068,3.908c.594,0,1.188,0,1.781,0,.124,0,.242.01.187-.178a6.117,6.117,0,0,0-.873-2.072,1.546,1.546,0,0,0-1.622-.548A1.56,1.56,0,0,0,1.22,2.158a3.375,3.375,0,0,0-.14,1.549c.019.166.082.208.242.205.582-.009,1.164,0,1.746,0" transform="translate(0 -0.001)" fill="#6e2b61"/>
    <path id="Path_18" data-name="Path 18" d="M102.568,66.354q-1.711,0-3.422,0c-.468,0-.719-.19-.713-.53s.258-.518.729-.519h6.809c.493,0,.755.189.749.535s-.26.514-.765.515h-3.387" transform="translate(-89.813 -59.585)" fill="#6e2b61"/>
    <path id="Path_19" data-name="Path 19" d="M251.735,267.668c-.606,0-1.211,0-1.817,0-.406,0-.648-.212-.64-.531s.239-.512.629-.515q1.834-.012,3.668,0c.388,0,.62.214.624.521s-.241.521-.648.525c-.606.006-1.211,0-1.817,0" transform="translate(-227.448 -243.266)" fill="#6e2b61"/>
  </g>
</svg>
