<svg id="North_Carolina" xmlns="http://www.w3.org/2000/svg" width="30" height="20.004" viewBox="0 0 30 20.004">
  <path id="Path_3725" data-name="Path 3725" d="M60.3,40.395v9.978h-20a.377.377,0,0,0,0-.149V40.541a.626.626,0,0,1,0-.151H60.265Z" transform="translate(-30.295 -30.369)" fill="#fff"/>
  <path id="Path_3726" data-name="Path 3726" d="M10.018,10.1a.625.625,0,0,0,0,.151v9.676a.377.377,0,0,1,0,.149H0V.1H10.013V9.967a.31.31,0,0,0,0,.129ZM7.8,14.713a.69.69,0,0,1-.31,0A1.059,1.059,0,0,0,7.659,15l.022.042a1.771,1.771,0,0,1-.33.144,6.133,6.133,0,0,1-1.737.32,7.793,7.793,0,0,1-2.287-.181,3.208,3.208,0,0,1-.744-.248l.022-.045c.037-.055.077-.107.109-.164s.055-.074.032-.127V14.7c-.015-.077-.082-.077-.134-.092a4.647,4.647,0,0,1-1.446-.665.169.169,0,0,0-.1-.047l.176.943-.719.02.213.171a4.275,4.275,0,0,0,.814.528v.069l-.1.171c-.045.082-.045.089.035.141a3.721,3.721,0,0,0,.7.367,7.666,7.666,0,0,0,2.615.5,8.338,8.338,0,0,0,1.841-.136A6.093,6.093,0,0,0,8.4,16.082c.124-.065.248-.139.365-.213.072-.045.069-.047.027-.127l-.109-.181v-.035a3.992,3.992,0,0,0,.992-.707L8.991,14.8c.045-.327.119-.635.171-.948a.387.387,0,0,0-.127.069,4.324,4.324,0,0,1-.965.5l-.457.144c-.047.015-.1.017-.127.074a.149.149,0,0,0,.131.052h.164ZM7.691,5.387H7.656a.727.727,0,0,0-.189.305.553.553,0,0,1,.315-.015V5.7H7.666a.308.308,0,0,0-.149.022c-.04.02-.042.042,0,.069a.347.347,0,0,0,.119.045,4.585,4.585,0,0,1,1.414.652.29.29,0,0,0,.119.065C9.115,6.235,9.041,5.92,9,5.585h.692a3.856,3.856,0,0,0-.4-.342,3.583,3.583,0,0,0-.6-.372v-.04c.037-.074.072-.146.114-.216s.02-.077-.027-.1c-.094-.055-.184-.117-.278-.171a6.594,6.594,0,0,0-2.729-.772,8.49,8.49,0,0,0-1.588.02,7.254,7.254,0,0,0-1.7.335,4.2,4.2,0,0,0-1.017.5c-.079.055-.079.055-.035.139a2.441,2.441,0,0,1,.124.223l-.027.027a4.183,4.183,0,0,0-.992.717c.208.012.412.012.613.012.077,0,.079,0,.067.082-.025.161-.055.323-.084.484s-.052.268-.079.422l.134-.084a4.352,4.352,0,0,1,1.025-.526c.134-.045.268-.082.4-.127.047-.015.112-.017.122-.089,0-.025.037-.045,0-.072a.523.523,0,0,0-.1-.194c-.025-.03-.035-.082-.089-.077V5.325A2.426,2.426,0,0,1,3,5.136a6.51,6.51,0,0,1,1.541-.265,7.738,7.738,0,0,1,2.28.171,3.473,3.473,0,0,1,.868.308ZM4.2,11.656a.323.323,0,0,0,.114-.072l.759-.571c.084-.062.069-.06.146,0,.248.191.5.385.744.573a.218.218,0,0,0,.109.069.127.127,0,0,0-.02-.112c-.094-.305-.2-.6-.3-.9-.042-.129-.042-.129.074-.211l.744-.538c.025-.017.065-.027.069-.074H5.585c-.139,0-.109.02-.154-.119l-.1-.323c-.069-.231-.139-.461-.213-.715-.02.057-.032.092-.042.129l-.3.958c-.027.087-.03.089-.119.087l-.94-.02H3.583l.112.087c.268.2.533.394.8.588a.092.092,0,0,1,.04.127c-.1.3-.2.6-.3.9a.265.265,0,0,0-.04.141Zm-1.759-1.02h-.02c-.074-.171-.151-.34-.228-.509-.141-.313-.285-.625-.429-.953-.017-.04-.03-.079-.087-.077H1.345c-.045,0-.065.017-.062.062a.439.439,0,0,1,0,.057v2.26a.65.65,0,0,1,0,.069c0,.045.02.065.065.062H1.58c.087,0,.1.025.1-.1V9.937a.144.144,0,0,1,.06.082c.122.275.248.551.362.824.1.233.206.464.305.7a.107.107,0,0,0,.122.079H2.8c.047,0,.062-.017.06-.062a.65.65,0,0,1,0-.069V9.225a.7.7,0,0,1,0-.072c0-.052-.022-.065-.069-.062H2.5c-.055,0-.069.022-.067.069s0,.077,0,.117Zm4.878-.347a4.657,4.657,0,0,0,.045.523,1.216,1.216,0,0,0,.186.5.712.712,0,0,0,.5.325.744.744,0,0,0,.645-.164,1.015,1.015,0,0,0,.305-.759c0-.045-.012-.067-.06-.065H8.6c-.047,0-.057.027-.062.067a1.394,1.394,0,0,1-.025.174.283.283,0,0,1-.248.228.365.365,0,0,1-.347-.122.571.571,0,0,1-.122-.251,2.379,2.379,0,0,1-.017-.69.992.992,0,0,1,.109-.392A.357.357,0,0,1,8.3,9.5a.31.31,0,0,1,.248.288.5.5,0,0,1,0,.057c0,.042.02.057.057.055H8.79c.184,0,.184,0,.179-.184a.744.744,0,0,0-.5-.682.774.774,0,0,0-.858.189,1.106,1.106,0,0,0-.248.5,3.059,3.059,0,0,0-.052.568Z" transform="translate(0 -0.075)" fill="#002868"/>
  <path id="Path_3727" data-name="Path 3727" d="M10.013.027H0S0,0,.012,0H30V10.026h-.03V.186c0-.161,0-.161-.159-.161h-19.8Z" fill="#ecb9c3"/>
  <path id="Path_3728" data-name="Path 3728" d="M40.353.11H60.159c.159,0,.159,0,.159.161V10.1H40.358a.31.31,0,0,1,0-.127V.227A.369.369,0,0,1,40.353.11Z" transform="translate(-30.34 -0.083)" fill="#bf0a30"/>
  <path id="Path_3729" data-name="Path 3729" d="M5.773,15.163a2.441,2.441,0,0,0-.124-.223c-.045-.084-.045-.084.035-.139A4.2,4.2,0,0,1,6.7,14.3a7.254,7.254,0,0,1,1.687-.36,8.49,8.49,0,0,1,1.588-.02A6.594,6.594,0,0,1,12.7,14.7c.094.055.184.117.278.171.047.027.057.055.027.1s-.077.141-.114.216a.228.228,0,0,0-.072.144h0a.131.131,0,0,0-.072.119h0c-.02,0-.022,0-.027.025h0a.122.122,0,0,0-.047.1h0c-.02,0-.025,0-.027.025h0a.124.124,0,0,0-.05.1h0c-.02,0-.022.012-.025.025h0a.112.112,0,0,0-.05.1h0c-.047.015-.055.06-.072.1h0c-.045.037-.057.1-.109.139a1.548,1.548,0,0,0-.429-.327,3.473,3.473,0,0,0-.876-.313,7.738,7.738,0,0,0-2.28-.171,6.51,6.51,0,0,0-1.541.265,2.426,2.426,0,0,0-.464.189,2.1,2.1,0,0,0-.481.293l-.2-.327C5.974,15.488,5.885,15.315,5.773,15.163Zm.662.136a1.67,1.67,0,0,1,.179.149c.027.022.055.045.092.025s.032-.06.027-.094a1.678,1.678,0,0,0-.045-.268,1.307,1.307,0,0,1,.154.221c.022.037.052.062.094.037s.037-.062.015-.1L6.616,14.7c-.017-.032-.042-.06-.082-.045a.068.068,0,0,0-.04.087,1.832,1.832,0,0,0,.04.228,1.278,1.278,0,0,1,.032.248.231.231,0,0,1-.109-.077l-.273-.248a.069.069,0,0,0-.094-.015c-.035.027-.027.062,0,.1.107.2.213.4.318.6.022.04.05.067.094.042s.035-.065.017-.1L6.413,15.3Zm2.451-.7a.624.624,0,0,0,.012.151.59.59,0,0,0,.015.092.213.213,0,0,0,.194.176.206.206,0,0,0,.206-.159.8.8,0,0,0,0-.471.191.191,0,0,0-.2-.156A.213.213,0,0,0,8.9,14.4a.759.759,0,0,0-.012.191Zm-1.848.293H7.026v.337a.06.06,0,0,0,.065.067.057.057,0,0,0,.06-.06.628.628,0,0,0,0-.117A.094.094,0,0,1,7.232,15c.112-.03.112-.032.176.065l.032.05c.022.04.055.074.1.045s.032-.072,0-.109l-.34-.541c-.025-.035-.052-.072-.1-.055s-.047.06-.047.1a2.44,2.44,0,0,0-.012.327Zm5.21.174c.057-.079.057-.079.127-.042l.072.04a.062.062,0,0,0,.092-.015.06.06,0,0,0-.025-.089c-.065-.04-.127-.077-.191-.112a.062.062,0,0,0-.084.015c-.062.082-.124.161-.179.248-.03.045,0,.084.052.089a.4.4,0,0,0,.079,0,.109.109,0,0,1,.094.06.161.161,0,0,1-.074.208c-.074.03-.134,0-.166-.1v-.022a.059.059,0,0,0-.079-.062c-.047.012-.045.057-.04.094a.233.233,0,0,0,.221.218.248.248,0,0,0,.265-.184c.055-.151,0-.248-.154-.357Zm-3.687-.179a.422.422,0,0,1,.164-.184.263.263,0,0,0,.082-.3.186.186,0,0,0-.248-.139.218.218,0,0,0-.176.248.051.051,0,0,0,.05.055.057.057,0,0,0,.069-.045.116.116,0,0,1,.02-.079.144.144,0,0,1,.122-.045c.05.007.05.042.052.077a.136.136,0,0,1-.05.136.744.744,0,0,0-.107.092.392.392,0,0,0-.129.248c0,.042,0,.084.057.084H8.8a.055.055,0,0,0,.057-.062.057.057,0,0,0-.06-.06H8.71a.409.409,0,0,1-.139-.04Zm-.819-.275c-.05,0-.069-.047-.1-.072l-.139-.141c-.03-.027-.062-.037-.094,0a.067.067,0,0,0,0,.094l.042.042c.057.06.112.119.171.174a.226.226,0,0,1,.077.151,2.109,2.109,0,0,0,.037.218.057.057,0,0,0,.069.05.062.062,0,0,0,.052-.067.313.313,0,0,0-.012-.069.553.553,0,0,1,.04-.417,1.888,1.888,0,0,0,.077-.2c.017-.042.017-.079-.03-.094s-.072,0-.089.052l-.03.077a1.083,1.083,0,0,1-.065.191Zm3.585-.027-.077.1a2.515,2.515,0,0,0-.221.357c-.02.042-.052.089,0,.122s.082-.02.1-.062a2.359,2.359,0,0,1,.221-.355c.035-.047.074-.092.107-.139s.042-.1-.037-.129-.166-.06-.253-.092c-.037,0-.072,0-.087.037s.012.069.055.084Zm.553.191c-.015.047-.052.065-.079.092a2.233,2.233,0,0,0-.283.327c-.025.037-.045.079,0,.112s.074,0,.1-.035a1.948,1.948,0,0,1,.417-.439c.062-.047.057-.089,0-.127a2.822,2.822,0,0,0-.273-.134c-.04-.02-.077-.022-.1.025s.012.072.05.089Zm-2.144-.1h0v.248c0,.03,0,.06.04.062s.052-.027.052-.062v-.248c0-.084.055-.114.127-.069a.1.1,0,0,1,.04.069.667.667,0,0,1,0,.186.757.757,0,0,0,0,.107A.042.042,0,0,0,10.04,15a.04.04,0,0,0,.042-.045,1.1,1.1,0,0,0,0-.325.139.139,0,0,0-.109-.124c-.1-.012-.164-.035-.144-.154a.036.036,0,0,0-.037-.035.04.04,0,0,0-.042.032.33.33,0,0,0,0,.069A1.51,1.51,0,0,0,9.738,14.667Zm.992-.149a2.21,2.21,0,0,0-.055.424c0,.134,0,.136.047.134s.067-.062.074-.112l.037-.248c.017-.109.032-.216.047-.325a.074.074,0,0,0-.03-.082.05.05,0,0,0-.065,0,.923.923,0,0,1-.169.124.06.06,0,0,0,.03.1.615.615,0,0,0,.072-.01Zm-1.174.072h.1a.045.045,0,0,0,.045-.045.04.04,0,0,0-.045-.045c-.087,0-.1-.037-.094-.112,0-.03,0-.067-.042-.072s-.045.032-.047.065.012.109-.069.124c-.032,0-.03.057,0,.069a.106.106,0,0,1,.052.1c0,.042,0,.134,0,.2A.129.129,0,0,0,9.608,15a.05.05,0,0,0,.042-.037.032.032,0,0,0-.022-.037c-.1-.017-.079-.094-.079-.161Z" transform="translate(-4.225 -10.449)" fill="#f9c602"/>
  <path id="Path_3730" data-name="Path 3730" d="M6.893,59.443a3.208,3.208,0,0,0,.744.248,7.793,7.793,0,0,0,2.287.181,6.133,6.133,0,0,0,1.737-.32,1.772,1.772,0,0,0,.345-.134,1.63,1.63,0,0,0,.481-.3c.042.027.047.072.082.092h0c.015.037.025.082.072.094h0a.128.128,0,0,0,.05.1h0a.4.4,0,0,0,.072.122h0a.146.146,0,0,0,.05.072h0c0,.015,0,.027.025.025h0a.122.122,0,0,0,.047.1h0c0,.015,0,.027.027.025h0a.119.119,0,0,0,.047.1h0c0,.015,0,.03.025.027h0a.134.134,0,0,0,.047.1l.1.194c.042.079.045.082-.027.127-.119.074-.248.149-.365.213a6.094,6.094,0,0,1-1.754.588,8.339,8.339,0,0,1-1.841.136,7.666,7.666,0,0,1-2.615-.5,3.722,3.722,0,0,1-.729-.394c-.079-.052-.079-.06-.035-.141l.1-.171A1.379,1.379,0,0,0,6,59.812c.131-.216.261-.432.394-.655A2.109,2.109,0,0,0,6.893,59.443Zm3.238,1.035a.639.639,0,0,0-.069,0c-.06,0-.087-.015-.079-.077v-.022c0-.032,0-.067-.047-.067s-.045.032-.045.065a.161.161,0,0,0,0,.035c0,.065,0,.065-.089.079a.216.216,0,0,0-.012-.055.221.221,0,0,0-.3-.151.231.231,0,0,0-.144.171.06.06,0,0,0,.035.077c.035.017.06,0,.077-.03s.015-.037.025-.052a.114.114,0,0,1,.144-.042c.047.022.05.067.047.109a.151.151,0,0,1-.062.109c-.045.03-.089.065-.131.1a.323.323,0,0,0-.117.184c-.015.072,0,.107.082.107h.3c.045,0,.079-.015.079-.065s-.042-.06-.082-.06H9.51c.027-.067.079-.089.119-.122a.415.415,0,0,0,.144-.149c0-.027.012-.06.062-.05a.069.069,0,0,1,.065.077v.211a.129.129,0,0,0,.141.127.055.055,0,0,0,.052-.037c0-.027,0-.05-.035-.05-.069,0-.067-.052-.069-.1a.445.445,0,0,1,0-.057.377.377,0,0,1,0-.139c.02-.062.092,0,.134-.045s.015,0,.012-.015l.047.36c0,.027,0,.057.045.057s.047-.037.042-.069c0-.082-.022-.164-.027-.248,0-.032-.027-.079.032-.094a.1.1,0,0,1,.127.057.226.226,0,0,1,.022.077,1.586,1.586,0,0,0,.022.186c.007.062,0,.079.052.074s.042-.05.04-.084a1.24,1.24,0,0,0-.037-.248.174.174,0,0,0-.2-.149c-.06,0-.1,0-.092-.077v-.025c0-.007-.017-.055-.05-.052s-.042.027-.042.057S10.128,60.43,10.13,60.477Zm-2.531.27c0,.05,0,.082.047.092s.065-.015.074-.052,0-.062.015-.092a1.521,1.521,0,0,1,.084-.414c.072-.136,0-.248-.156-.3-.074-.025-.151-.037-.226-.057s-.057,0-.067.04l-.067.261c-.037.144-.074.285-.114.429a.067.067,0,0,0,.04.092c.04.012.069-.022.079-.062s.02-.084.032-.124c.045-.166.042-.164.206-.114.06.017.084.047.077.107A1.488,1.488,0,0,1,7.6,60.748Zm4.684-.9a.149.149,0,0,1,.052-.166c.052-.035.084.012.119.042a.047.047,0,0,0,.072,0,.062.062,0,0,0,0-.084.194.194,0,0,0-.308-.035.3.3,0,0,0-.077.226.759.759,0,0,0,.114.365.275.275,0,0,0,.171.131.189.189,0,0,0,.248-.117.31.31,0,0,0-.069-.345C12.515,59.78,12.43,59.775,12.284,59.852Zm-5.614-.164h0a.151.151,0,0,0,0-.035c0-.032,0-.062-.035-.079s-.065.012-.087.012l-.05.047-.424.449a.308.308,0,0,0-.045.055.06.06,0,0,0,.082.077.67.67,0,0,0,.077-.069c.112-.112.065-.1.213-.04a.089.089,0,0,1,.06.127.6.6,0,0,0-.017.117c0,.037,0,.072.047.079s.069-.025.074-.069Zm.623.352a.2.2,0,0,0-.119-.208,1.9,1.9,0,0,0-.194-.084c-.069-.03-.072-.03-.1.04-.079.2-.159.4-.236.6-.017.042-.042.089.017.122s.067,0,.1-.072a.905.905,0,0,0,.035-.087c.05-.124.052-.129.174-.079a.231.231,0,0,0,.325-.228Zm4.146.074a.265.265,0,0,1,0,.117,2.935,2.935,0,0,0,.02.466c0,.062.037.089.077.079a.077.077,0,0,0,.05-.092,3.671,3.671,0,0,1-.012-.6.65.65,0,0,0,0-.069c0-.069-.03-.089-.1-.069l-.263.092-.055.02a.06.06,0,0,0-.035.079.057.057,0,0,0,.077.035l.112-.035a.231.231,0,0,1,.127-.027Zm.514-.2v.355a1.26,1.26,0,0,0,.03.248.059.059,0,0,0,.072.06c.042-.007.055-.037.052-.077V60.47a2.173,2.173,0,0,1-.012-.523.878.878,0,0,0,0-.139.059.059,0,0,0-.082-.06c-.117.042-.231.089-.347.136a.052.052,0,0,0-.027.069.06.06,0,0,0,.074.042.577.577,0,0,0,.077-.027.819.819,0,0,1,.161-.05ZM8.478,60.966c.045,0,.084-.02.084-.06s-.04-.062-.082-.069l-.154-.01c-.082-.015-.084-.017-.069-.1.025-.156.052-.315.077-.471a.3.3,0,0,0,0-.082.05.05,0,0,0-.047-.042.047.047,0,0,0-.06.027.211.211,0,0,0-.022.077c-.02.112-.037.223-.055.335s-.032.191-.047.288c0,.042,0,.065.052.069a2.262,2.262,0,0,1,.33.035Zm2.481-.618a.174.174,0,0,1,.022.074c.025.134.05.265.077.4a.062.062,0,0,0,.077.067c.05-.012.052-.047.045-.092s-.022-.122-.035-.184l-.089-.466A.063.063,0,0,0,11,60.08c-.037,0-.055.017-.069.05a.509.509,0,0,1-.094.146.059.059,0,1,0,.082.084c.02,0,.03-.017.05-.012Zm-1.754.3h.022v-.29c0-.035,0-.062-.04-.077a.065.065,0,0,0-.079.032.536.536,0,0,1-.1.094c-.04.035-.032.1.015.1.089,0,.072.06.069.112s0,.131,0,.2v.151a.05.05,0,0,0,.055.05.052.052,0,0,0,.06-.042.33.33,0,0,0,0-.069Zm-1.384.131c0,.047,0,.1.052.1s.067-.042.072-.084.022-.131.032-.2c.02-.149.042-.3.062-.449,0-.042,0-.082-.047-.092s-.069.025-.074.067c-.025.218-.057.439-.089.652Z" transform="translate(-4.315 -44.452)" fill="#f9c602"/>
  <path id="Path_3731" data-name="Path 3731" d="M15.03,37.612a.265.265,0,0,1,.032-.141c.1-.3.2-.6.3-.9a.092.092,0,0,0-.04-.127c-.268-.194-.533-.392-.8-.588l-.112-.087h.146l.948.022c.089,0,.092,0,.119-.087l.3-.96a.477.477,0,0,1,.042-.129c.074.248.144.5.213.715l.1.325c.045.139.015.119.154.119h1.059c0,.047-.045.057-.069.074l-.744.538c-.117.082-.117.082-.074.211.1.3.2.6.3.9,0,.035.035.069.02.112a.218.218,0,0,1-.124-.072c-.248-.189-.5-.382-.744-.573-.077-.06-.062-.062-.146,0l-.759.571A.323.323,0,0,1,15.03,37.612Z" transform="translate(-10.835 -26.031)" fill="#fff"/>
  <path id="Path_3732" data-name="Path 3732" d="M6.293,37.893V36.419c0-.04,0-.072.067-.069h.268c.047,0,.074,0,.069.062a.7.7,0,0,0,0,.072v2.26a.65.65,0,0,0,0,.069c0,.045,0,.065-.06.062H6.37a.107.107,0,0,1-.122-.079c-.1-.233-.2-.464-.305-.7-.122-.273-.248-.548-.362-.824a.144.144,0,0,0-.06-.082v1.573c0,.124-.015.1-.1.1H5.194c-.045,0-.067-.017-.065-.062a.65.65,0,0,0,0-.069v-2.26a.439.439,0,0,0,0-.057c0-.045.017-.062.062-.062h.327c.057,0,.069.037.087.077.144.32.288.64.429.96.077.169.154.337.228.509Z" transform="translate(-3.857 -27.331)" fill="#f9c602"/>
  <path id="Path_3733" data-name="Path 3733" d="M29.48,37.154a3.059,3.059,0,0,1,.062-.583,1.107,1.107,0,0,1,.248-.5.774.774,0,0,1,.858-.189.744.744,0,0,1,.5.682c0,.184,0,.184-.179.184h-.191c-.037,0-.057,0-.057-.055a.5.5,0,0,0,0-.057.31.31,0,0,0-.248-.288.357.357,0,0,0-.4.159.992.992,0,0,0-.109.392,2.379,2.379,0,0,0,.01.7.571.571,0,0,0,.139.261.365.365,0,0,0,.347.122.283.283,0,0,0,.248-.228,1.394,1.394,0,0,0,.025-.174c0-.04.015-.067.062-.067h.327c.047,0,.06.02.06.065a1.015,1.015,0,0,1-.313.767.744.744,0,0,1-.645.164.712.712,0,0,1-.5-.325,1.216,1.216,0,0,1-.186-.5A4.657,4.657,0,0,1,29.48,37.154Z" transform="translate(-22.166 -26.94)" fill="#f9c602"/>
  <path id="Path_3734" data-name="Path 3734" d="M31.335,19.23a3.582,3.582,0,0,1,.6.372,3.854,3.854,0,0,1,.407.342h-.692c.045.335.119.65.174.973a.29.29,0,0,1-.119-.065,4.585,4.585,0,0,0-1.414-.652.347.347,0,0,1-.119-.045c-.035-.027-.032-.05,0-.069a.308.308,0,0,1,.149-.022h.117a.5.5,0,0,0,.181.03c.181.022.248-.032.288-.223h0c.052,0,.052-.06.072-.1h0a.114.114,0,0,0,.05-.1h0c.02,0,.022,0,.025-.025h0a.124.124,0,0,0,.05-.1h0c.02,0,.022,0,.027-.025h0a.129.129,0,0,0,.047-.1h0c.02,0,.025-.012.027-.025h0a.392.392,0,0,0,.072-.119h0Z" transform="translate(-22.669 -14.459)" fill="#f9c602"/>
  <path id="Path_3735" data-name="Path 3735" d="M4.3,19.971c0,.072-.074.074-.122.089-.134.045-.268.082-.4.127a4.351,4.351,0,0,0-1.025.526l-.146.084c.027-.154.055-.288.079-.422s.06-.323.084-.484c0-.077,0-.079-.067-.082-.2,0-.4,0-.613-.012a4.183,4.183,0,0,1,.992-.717c.159.268.318.533.474.8a.164.164,0,0,0,.181.092c.057,0,.114-.017.174-.02A.71.71,0,0,1,4.3,19.971Z" transform="translate(-1.571 -14.346)" fill="#f9c602"/>
  <path id="Path_3736" data-name="Path 3736" d="M30.535,56.366h-.164a.149.149,0,0,1-.131-.052c.025-.057.079-.06.127-.074l.457-.144a4.324,4.324,0,0,0,.965-.5.387.387,0,0,1,.127-.069c-.052.313-.127.62-.171.948l.685.015a3.992,3.992,0,0,1-.992.707c-.012-.022-.022-.05-.047-.062h0c0-.015,0-.03-.025-.027h0a.117.117,0,0,0-.047-.1h0c0-.012,0-.027-.027-.025h0a.129.129,0,0,0-.047-.1h0c0-.012,0-.027-.025-.025h0c0-.035,0-.065-.05-.072h0a.131.131,0,0,0-.072-.122h0a.112.112,0,0,0-.05-.1h0c-.017-.035-.02-.084-.072-.094h0c-.032-.146-.082-.191-.216-.181A.745.745,0,0,0,30.535,56.366Z" transform="translate(-22.738 -41.753)" fill="#f9c602"/>
  <path id="Path_3737" data-name="Path 3737" d="M3.127,57.382a4.275,4.275,0,0,1-.8-.528L2.1,56.683l.719-.02-.176-.943a.169.169,0,0,1,.1.047,4.647,4.647,0,0,0,1.441.653c.052.015.119.015.134.092a.409.409,0,0,1-.2.027L3.787,56.5a.171.171,0,0,0-.191.1C3.442,56.861,3.283,57.122,3.127,57.382Z" transform="translate(-1.579 -41.896)" fill="#f9c602"/>
  <path id="Path_3738" data-name="Path 3738" d="M6.24,59.747c.156-.26.315-.521.469-.782a.171.171,0,0,1,.191-.1l.337.035a.409.409,0,0,0,.2-.027v.04a.382.382,0,0,1-.2.03l-.305-.032a.191.191,0,0,0-.1,0c0,.042.035.055.06.069a1.149,1.149,0,0,0,.4.221l-.022.045a2.109,2.109,0,0,1-.5-.3c-.134.223-.263.439-.394.655a1.379,1.379,0,0,1-.131.206Z" transform="translate(-4.692 -44.261)" fill="#103262"/>
  <path id="Path_3739" data-name="Path 3739" d="M7.308,19.911a.709.709,0,0,0-.367-.015c-.06,0-.117.015-.174.02a.164.164,0,0,1-.2-.092c-.156-.27-.315-.536-.474-.8L6.127,19c.112.159.2.332.3.5l.2.337a2.1,2.1,0,0,1,.481-.293v.032c-.077.045-.156.084-.228.134a.533.533,0,0,0-.2.166.189.189,0,0,0,.112,0,1.379,1.379,0,0,1,.5-.012.026.026,0,0,0,.025-.017C7.333,19.866,7.308,19.886,7.308,19.911Z" transform="translate(-4.579 -14.286)" fill="#103262"/>
  <path id="Path_3740" data-name="Path 3740" d="M30.385,21.69a.553.553,0,0,0-.315.015.727.727,0,0,1,.189-.305h.035c.072.045.149.084.218.131a.417.417,0,0,1,.181.166C30.584,21.73,30.487,21.68,30.385,21.69Z" transform="translate(-22.61 -16.091)" fill="#f9c602"/>
  <path id="Path_3741" data-name="Path 3741" d="M30.359,59.229a1.059,1.059,0,0,1-.169-.285.69.69,0,0,0,.31,0,.84.84,0,0,1,.325,0A1.218,1.218,0,0,1,30.359,59.229Z" transform="translate(-22.7 -44.305)" fill="#f9c602"/>
  <path id="Path_3742" data-name="Path 3742" d="M9.083,21.56s-.012.022-.025.017a1.379,1.379,0,0,0-.5.012.189.189,0,0,1-.112,0,.533.533,0,0,1,.2-.166c.072-.05.151-.089.228-.134.055,0,.065.047.089.077A.523.523,0,0,1,9.083,21.56Z" transform="translate(-6.354 -16.008)" fill="#f9c602"/>
  <path id="Path_3743" data-name="Path 3743" d="M9.074,59.34a1.149,1.149,0,0,1-.4-.221c-.025-.015-.057-.027-.06-.069a.191.191,0,0,1,.1,0l.3.032a.382.382,0,0,0,.2-.03.111.111,0,0,1-.032.127A1.5,1.5,0,0,0,9.074,59.34Z" transform="translate(-6.474 -44.395)" fill="#f9c602"/>
  <path id="Path_3744" data-name="Path 3744" d="M30.87,59.1a1.218,1.218,0,0,0,.466-.285c-.124-.04-.226.015-.325,0v-.025a.745.745,0,0,1,.231-.035c.134,0,.184.035.216.181-.035-.02-.04-.065-.082-.092a1.63,1.63,0,0,1-.474.3Z" transform="translate(-23.211 -44.182)" fill="#103262"/>
  <path id="Path_3745" data-name="Path 3745" d="M31.062,21.555a.8.8,0,0,0,.308,0,.417.417,0,0,0-.181-.166c-.069-.047-.146-.087-.218-.131V21.22a1.548,1.548,0,0,1,.454.3c.052-.04.065-.1.109-.139-.04.191-.107.248-.288.223a.5.5,0,0,1-.181-.03Z" transform="translate(-23.286 -15.955)" fill="#103262"/>
  <path id="Path_3746" data-name="Path 3746" d="M34.712,19.11l-.072.1a.228.228,0,0,1,.072-.144Z" transform="translate(-26.046 -14.339)" fill="#103262"/>
  <path id="Path_3747" data-name="Path 3747" d="M34.83,62c.025,0,.035.04.047.062V62.1A.134.134,0,0,1,34.83,62Z" transform="translate(-26.189 -46.618)" fill="#103262"/>
  <path id="Path_3748" data-name="Path 3748" d="M7.784,17.6l.107.208c.017.037.027.079-.017.1s-.072,0-.094-.042c-.1-.2-.211-.4-.318-.6a.082.082,0,0,1,0-.1.069.069,0,0,1,.094.015l.273.248a.231.231,0,0,0,.1.069,1.278,1.278,0,0,0-.032-.248,1.466,1.466,0,0,0-.04-.228c0-.037,0-.074.04-.087s.065.012.082.045l.347.563c.022.037.03.077-.015.1s-.072,0-.094-.037a1.308,1.308,0,0,0-.154-.221c.015.089.032.179.045.268,0,.035.012.072-.027.094s-.065,0-.092-.025a1.67,1.67,0,0,0-.179-.149s-.02-.02-.025-.017S7.779,17.583,7.784,17.6Z" transform="translate(-5.598 -12.735)" fill="#103262"/>
  <path id="Path_3749" data-name="Path 3749" d="M18.789,15.565a.759.759,0,0,1,.02-.2.213.213,0,0,1,.211-.169.191.191,0,0,1,.2.156.8.8,0,0,1,0,.471.206.206,0,0,1-.206.159.213.213,0,0,1-.194-.176.591.591,0,0,1-.015-.092A1.054,1.054,0,0,1,18.789,15.565Zm.129,0a.92.92,0,0,0,.032.248.077.077,0,0,0,.06.05.072.072,0,0,0,.074-.045.149.149,0,0,0,.022-.055,1.087,1.087,0,0,0,0-.347.083.083,0,0,0-.092-.087.1.1,0,0,0-.089.092c0,.047,0,.1-.007.146Z" transform="translate(-14.127 -11.427)" fill="#103262"/>
  <path id="Path_3750" data-name="Path 3750" d="M11.316,16.564v-.327c0-.037,0-.082.047-.1s.079.02.1.055l.357.533c.025.037.045.079,0,.109s-.079,0-.1-.045l-.032-.05c-.065-.1-.065-.094-.176-.065a.094.094,0,0,0-.082.114.627.627,0,0,1,0,.117.057.057,0,0,1-.06.06.06.06,0,0,1-.065-.067v-.337Zm.122,0c.109-.015.112-.017.055-.1-.012-.017-.02-.042-.055-.04a.452.452,0,0,0,0,.131Z" transform="translate(-8.502 -12.132)" fill="#103262"/>
  <path id="Path_3751" data-name="Path 3751" d="M31.425,17.859c.164.1.208.206.161.352a.248.248,0,0,1-.256.179.233.233,0,0,1-.221-.218c0-.037,0-.082.04-.094s.072.015.079.062v.022c.032.092.092.127.166.1a.161.161,0,0,0,.074-.208.109.109,0,0,0-.094-.06H31.3c-.025,0-.082-.045-.052-.089.055-.084.117-.164.179-.248a.062.062,0,0,1,.084-.015c.065.035.127.072.191.112a.06.06,0,0,1,.025.089.062.062,0,0,1-.092.015l-.072-.04C31.482,17.78,31.482,17.78,31.425,17.859Z" transform="translate(-23.392 -13.255)" fill="#103262"/>
  <path id="Path_3752" data-name="Path 3752" d="M16.956,15.849a.409.409,0,0,0,.144,0h.092a.057.057,0,0,1,.06.06.055.055,0,0,1-.057.062,3.061,3.061,0,0,1-.337,0c-.05,0-.06-.042-.057-.084a.392.392,0,0,1,.129-.248.744.744,0,0,1,.107-.092.136.136,0,0,0,.05-.136c0-.035,0-.072-.052-.077s-.1,0-.122.045,0,.052-.02.079a.057.057,0,0,1-.069.045c-.032,0-.045-.025-.05-.055a.218.218,0,0,1,.176-.248c.144-.027.226.027.248.139a.263.263,0,0,1-.082.3A.422.422,0,0,0,16.956,15.849Z" transform="translate(-12.609 -11.423)" fill="#103262"/>
  <path id="Path_3753" data-name="Path 3753" d="M13.176,15.707c.027-.067.055-.136.079-.2l.03-.077c.017-.04.042-.069.089-.052s.047.052.03.094a1.888,1.888,0,0,1-.077.2.553.553,0,0,0-.04.417.313.313,0,0,1,.012.069.062.062,0,0,1-.052.067.057.057,0,0,1-.069-.05,2.109,2.109,0,0,1-.037-.218.226.226,0,0,0-.077-.151c-.06-.055-.114-.114-.171-.174l-.042-.042a.067.067,0,0,1,0-.094.065.065,0,0,1,.094,0l.139.141C13.107,15.66,13.122,15.7,13.176,15.707Z" transform="translate(-9.648 -11.556)" fill="#103262"/>
  <path id="Path_3754" data-name="Path 3754" d="M27.692,16.04l-.206-.065c-.042-.015-.072-.037-.055-.084s.05-.047.087-.037c.094.027.186.052.278.084s.087.06.037.129-.072.092-.107.139a2.359,2.359,0,0,0-.221.355c-.022.042-.047.092-.1.062s-.027-.079,0-.122a2.516,2.516,0,0,1,.213-.367Z" transform="translate(-20.579 -11.917)" fill="#103262"/>
  <path id="Path_3755" data-name="Path 3755" d="M29.7,16.71l-.176-.1c-.037-.017-.069-.042-.05-.089s.06-.045.1-.025c.092.042.184.087.273.134s.072.079,0,.127a1.947,1.947,0,0,0-.417.439c-.025.035-.057.06-.1.035s-.027-.074,0-.112a2.233,2.233,0,0,1,.283-.327C29.648,16.775,29.685,16.757,29.7,16.71Z" transform="translate(-22.034 -12.396)" fill="#103262"/>
  <path id="Path_3756" data-name="Path 3756" d="M22.182,15.985v-.233a.33.33,0,0,1,0-.069.04.04,0,0,1,.042-.032c.022,0,.042.017.037.035-.02.119.047.141.144.154a.139.139,0,0,1,.109.124,1.1,1.1,0,0,1,0,.325.04.04,0,0,1-.042.045.042.042,0,0,1-.045-.042.757.757,0,0,1,0-.107.667.667,0,0,0,0-.186.1.1,0,0,0-.04-.069c-.072-.045-.124-.015-.127.069s0,.164,0,.248c0,.035-.012.065-.052.062s-.04-.032-.04-.062v-.261Z" transform="translate(-16.67 -11.767)" fill="#103262"/>
  <path id="Path_3757" data-name="Path 3757" d="M25.778,15.712a.615.615,0,0,1-.082,0,.06.06,0,0,1-.03-.1.923.923,0,0,0,.169-.124.05.05,0,0,1,.065,0,.074.074,0,0,1,.03.082c-.015.109-.03.216-.047.325l-.037.248c0,.05,0,.107-.074.112s-.06-.037-.047-.134S25.758,15.851,25.778,15.712Z" transform="translate(-19.283 -11.633)" fill="#103262"/>
  <path id="Path_3758" data-name="Path 3758" d="M20.909,15.88v.164c0,.067-.022.144.079.161a.032.032,0,0,1,.022.037.05.05,0,0,1-.042.037.129.129,0,0,1-.151-.124v-.2c0-.067,0-.082-.052-.1s-.04-.062,0-.069c.082-.015.065-.072.069-.124s0-.067.047-.065.045.042.042.072c0,.074,0,.122.094.112a.04.04,0,0,1,.045.045.045.045,0,0,1-.045.045h-.045Z" transform="translate(-15.587 -11.729)" fill="#103262"/>
  <path id="Path_3759" data-name="Path 3759" d="M34.432,19.64a.392.392,0,0,1-.072.119.131.131,0,0,1,.072-.119Z" transform="translate(-25.835 -14.767)" fill="#103262"/>
  <path id="Path_3760" data-name="Path 3760" d="M33.3,21.52c-.02.037-.02.087-.072.1C33.247,21.58,33.255,21.535,33.3,21.52Z" transform="translate(-24.986 -16.181)" fill="#103262"/>
  <path id="Path_3761" data-name="Path 3761" d="M33.85,20.67a.124.124,0,0,1-.05.1.124.124,0,0,1,.05-.1Z" transform="translate(-25.414 -15.542)" fill="#103262"/>
  <path id="Path_3762" data-name="Path 3762" d="M34.127,20.2a.129.129,0,0,1-.047.1A.122.122,0,0,1,34.127,20.2Z" transform="translate(-25.625 -15.188)" fill="#103262"/>
  <path id="Path_3763" data-name="Path 3763" d="M33.559,21.14a.114.114,0,0,1-.05.1A.112.112,0,0,1,33.559,21.14Z" transform="translate(-25.196 -15.895)" fill="#103262"/>
  <path id="Path_3764" data-name="Path 3764" d="M33.976,20.579c0,.015,0,.027-.027.025S33.953,20.577,33.976,20.579Z" transform="translate(-25.518 -15.474)" fill="#103262"/>
  <path id="Path_3765" data-name="Path 3765" d="M34.257,20.109c0,.012,0,.027-.027.025S34.237,20.107,34.257,20.109Z" transform="translate(-25.73 -15.12)" fill="#103262"/>
  <path id="Path_3766" data-name="Path 3766" d="M33.7,21.042c0,.015,0,.027-.025.025S33.676,21.03,33.7,21.042Z" transform="translate(-25.311 -15.819)" fill="#103262"/>
  <path id="Path_3767" data-name="Path 3767" d="M21.067,63.933v-.117c0-.035,0-.057.042-.057s.045.022.05.052,0,.017,0,.025c0,.069.032.077.092.077a.174.174,0,0,1,.2.149,1.24,1.24,0,0,1,.037.248c0,.035,0,.079-.04.084s-.047-.04-.052-.074-.012-.124-.022-.186a.226.226,0,0,0-.022-.077A.1.1,0,0,0,21.221,64c-.06.015-.035.062-.032.094a2.166,2.166,0,0,0,.027.248c0,.032,0,.067-.042.069s-.042-.03-.045-.057L21.082,64c0,.012,0,0-.012.015s-.114-.017-.134.045a.377.377,0,0,0,0,.139.445.445,0,0,0,0,.057c0,.047,0,.1.069.1.027,0,.04.022.035.05a.055.055,0,0,1-.052.037.129.129,0,0,1-.141-.127V64.1a.069.069,0,0,0-.065-.077c-.05,0-.052.022-.062.05-.027.069-.089.1-.144.149s-.092.055-.119.122h.231c.04,0,.082,0,.082.06s-.035.065-.079.065h-.3c-.1,0-.1-.035-.082-.107a.322.322,0,0,1,.117-.184c.042-.035.087-.069.131-.1a.151.151,0,0,0,.062-.109c0-.042,0-.087-.047-.109a.114.114,0,0,0-.144.042.141.141,0,0,1-.025.052.062.062,0,0,1-.077.03.06.06,0,0,1-.035-.077.231.231,0,0,1,.144-.171.221.221,0,0,1,.3.151.216.216,0,0,1,.012.055c.087-.015.087-.015.089-.079a.161.161,0,0,1,0-.035c0-.032,0-.067.045-.065s.042.035.047.067v.022c0,.062.02.087.079.077Z" transform="translate(-15.252 -47.909)" fill="#103262"/>
  <path id="Path_3768" data-name="Path 3768" d="M11.982,63.164a1.488,1.488,0,0,0,.025-.2.093.093,0,0,0-.077-.107c-.164-.05-.161-.052-.206.114a.611.611,0,0,1-.032.124c-.01.042-.032.074-.079.062s-.052-.05-.04-.092c.04-.144.077-.285.114-.429l.067-.261c0-.035.027-.052.067-.04s.151.032.226.057c.154.05.228.166.156.3a1.521,1.521,0,0,0-.084.414.2.2,0,0,1-.015.092c-.015.03-.032.065-.074.052S11.974,63.214,11.982,63.164Zm-.06-.665c-.045-.015-.065,0-.074.05-.047.191-.057.149.1.191h.022c.074.017.089.012.117-.055a.115.115,0,0,0-.077-.169Z" transform="translate(-8.697 -46.869)" fill="#103262"/>
  <path id="Path_3769" data-name="Path 3769" d="M31.719,61.149c.146-.077.231-.072.323.015a.31.31,0,0,1,.069.345.189.189,0,0,1-.248.117.275.275,0,0,1-.171-.131.759.759,0,0,1-.1-.362.3.3,0,0,1,.077-.226.194.194,0,0,1,.308.035.062.062,0,0,1,0,.084.047.047,0,0,1-.072,0c-.035-.03-.067-.077-.119-.042A.149.149,0,0,0,31.719,61.149Zm.3.228a.449.449,0,0,0-.032-.087.117.117,0,0,0-.124-.067c-.057.015-.069.069-.069.122a.166.166,0,0,0,.114.159.065.065,0,0,0,.087-.035.556.556,0,0,0,.025-.089Z" transform="translate(-23.75 -45.75)" fill="#103262"/>
  <path id="Path_3770" data-name="Path 3770" d="M7.535,61.011l-.1.667c0,.045-.025.077-.074.069s-.052-.042-.047-.079a.6.6,0,0,1,.017-.117.089.089,0,0,0-.06-.127c-.149-.06-.1-.072-.213.04a.67.67,0,0,1-.077.069.06.06,0,0,1-.082-.077.308.308,0,0,1,.045-.052l.422-.439.052-.057c.025-.02.05-.042.084-.022s.035.047.035.079a.151.151,0,0,1,0,.035Zm-.179.308c0-.057.037-.109.02-.156l-.139.1a.208.208,0,0,0,.119.055Z" transform="translate(-5.18 -45.775)" fill="#103262"/>
  <path id="Path_3771" data-name="Path 3771" d="M10,61.885a.231.231,0,0,1-.325.228c-.122-.05-.124-.045-.174.079a.905.905,0,0,1-.035.087c-.03.072-.06.092-.1.072s-.035-.079-.017-.122c.077-.2.156-.4.236-.6.027-.069.03-.069.1-.04a1.9,1.9,0,0,1,.194.084A.2.2,0,0,1,10,61.885Zm-.124-.015c0-.082-.079-.094-.139-.124s-.062,0-.069.032-.084.1-.037.176a.062.062,0,0,0,.022,0l.074.03c.084.037.149-.012.146-.114Z" transform="translate(-7.023 -46.297)" fill="#103262"/>
  <path id="Path_3772" data-name="Path 3772" d="M27.746,62.612a.231.231,0,0,0-.122.027l-.112.035a.057.057,0,0,1-.077-.035.06.06,0,0,1,.035-.079l.055-.02.263-.092c.069-.02.094,0,.1.069a.649.649,0,0,1,0,.069,3.672,3.672,0,0,0,.012.6c0,.042,0,.079-.05.092s-.069-.017-.077-.079a2.935,2.935,0,0,1-.02-.466A.265.265,0,0,0,27.746,62.612Z" transform="translate(-20.625 -46.949)" fill="#103262"/>
  <path id="Path_3773" data-name="Path 3773" d="M29.794,61.827a.819.819,0,0,0-.166.057.578.578,0,0,1-.077.027.06.06,0,0,1-.074-.042A.052.052,0,0,1,29.5,61.8c.117-.047.231-.094.347-.136.045-.015.077,0,.082.06a.878.878,0,0,1,0,.139,2.173,2.173,0,0,0,.012.523v.035c0,.04,0,.072-.052.077s-.065-.022-.072-.06a1.26,1.26,0,0,1-.03-.248C29.8,62.066,29.794,61.949,29.794,61.827Z" transform="translate(-22.16 -46.361)" fill="#103262"/>
  <path id="Path_3774" data-name="Path 3774" d="M15.66,64c-.119-.017-.221-.035-.325-.047-.05,0-.06-.027-.052-.069.015-.1.032-.191.047-.288s.035-.223.055-.335a.211.211,0,0,1,.022-.077.047.047,0,0,1,.06-.027.05.05,0,0,1,.047.042.3.3,0,0,1,0,.082c-.025.156-.052.315-.077.471-.015.079-.012.082.069.1l.161.022a.072.072,0,0,1,.082.069C15.752,63.985,15.708,64,15.66,64Z" transform="translate(-11.49 -47.482)" fill="#103262"/>
  <path id="Path_3775" data-name="Path 3775" d="M26.378,63.271c-.02,0-.03,0-.042.017a.059.059,0,1,1-.082-.084.509.509,0,0,0,.094-.146c.015-.032.035-.055.069-.05s.05.032.057.067l.089.466c.012.062.022.124.035.184s0,.082-.045.092-.069-.027-.077-.067c-.027-.134-.052-.265-.077-.4A.174.174,0,0,0,26.378,63.271Z" transform="translate(-19.726 -47.375)" fill="#103262"/>
  <path id="Path_3776" data-name="Path 3776" d="M19.061,64.116v.248a.33.33,0,0,1,0,.069.052.052,0,0,1-.06.042.05.05,0,0,1-.055-.05v-.35c0-.067.02-.1-.069-.112-.047,0-.055-.065-.015-.1a.536.536,0,0,0,.1-.094.065.065,0,0,1,.079-.032c.035.015.04.042.04.077v.29Z" transform="translate(-14.163 -47.922)" fill="#103262"/>
  <path id="Path_3777" data-name="Path 3777" d="M14.156,63.614c.032-.213.065-.434.1-.653a.061.061,0,0,1,.074-.067c.047.01.055.05.047.092-.02.149-.042.3-.062.449a1.4,1.4,0,0,1-.032.2c-.01.067-.012.089-.072.084S14.154,63.664,14.156,63.614Z" transform="translate(-10.643 -47.289)" fill="#103262"/>
  <path id="Path_3778" data-name="Path 3778" d="M33.7,60.23a.131.131,0,0,1,.072.122A.4.4,0,0,1,33.7,60.23Z" transform="translate(-25.339 -45.287)" fill="#103262"/>
  <path id="Path_3779" data-name="Path 3779" d="M33.23,59.48c.052,0,.055.06.072.094C33.255,59.562,33.245,59.517,33.23,59.48Z" transform="translate(-24.986 -44.723)" fill="#103262"/>
  <path id="Path_3780" data-name="Path 3780" d="M33.506,59.85a.112.112,0,0,1,.05.1C33.529,59.919,33.5,59.887,33.506,59.85Z" transform="translate(-25.193 -45.001)" fill="#103262"/>
  <path id="Path_3781" data-name="Path 3781" d="M34.27,61.08a.129.129,0,0,1,.047.1A.122.122,0,0,1,34.27,61.08Z" transform="translate(-25.768 -45.926)" fill="#103262"/>
  <path id="Path_3782" data-name="Path 3782" d="M34.55,61.55a.117.117,0,0,1,.047.1A.119.119,0,0,1,34.55,61.55Z" transform="translate(-25.978 -46.28)" fill="#103262"/>
  <path id="Path_3783" data-name="Path 3783" d="M34,60.71c.04,0,.05.037.05.072A.146.146,0,0,1,34,60.71Z" transform="translate(-25.565 -45.648)" fill="#103262"/>
  <path id="Path_3784" data-name="Path 3784" d="M34.17,61c.017,0,.022,0,.025.025S34.172,61.012,34.17,61Z" transform="translate(-25.692 -45.866)" fill="#103262"/>
  <path id="Path_3785" data-name="Path 3785" d="M34.45,61.46c.02,0,.025,0,.027.025S34.455,61.475,34.45,61.46Z" transform="translate(-25.903 -46.212)" fill="#103262"/>
  <path id="Path_3786" data-name="Path 3786" d="M34.74,61.93c.02,0,.022,0,.025.027S34.742,61.947,34.74,61.93Z" transform="translate(-26.121 -46.565)" fill="#103262"/>
  <path id="Path_3787" data-name="Path 3787" d="M8.787,19.473c0-.012-.017-.025,0-.035s.015,0,.025.017Z" transform="translate(-6.601 -14.613)" fill="#f9c602"/>
  <path id="Path_3788" data-name="Path 3788" d="M19.309,15.946v-.154A.1.1,0,0,1,19.4,15.7a.091.091,0,0,1,.092.087,1.087,1.087,0,0,1,0,.347.149.149,0,0,1-.022.055.072.072,0,0,1-.074.045.077.077,0,0,1-.06-.05A.921.921,0,0,1,19.309,15.946Z" transform="translate(-14.518 -11.805)" fill="#f9c602"/>
  <path id="Path_3789" data-name="Path 3789" d="M11.813,17.391a.452.452,0,0,1,0-.141c.035,0,.042.022.055.04C11.925,17.374,11.922,17.377,11.813,17.391Z" transform="translate(-8.878 -12.97)" fill="#f9c602"/>
  <path id="Path_3790" data-name="Path 3790" d="M12.682,62.971l.089.025c.094.032.114.079.077.169s-.042.072-.117.055H12.71c-.159-.042-.149,0-.1-.191C12.61,62.971,12.63,62.946,12.682,62.971Z" transform="translate(-9.457 -47.341)" fill="#f9c602"/>
  <path id="Path_3791" data-name="Path 3791" d="M32.626,62.53a.556.556,0,0,1-.025.092.065.065,0,0,1-.087.035A.166.166,0,0,1,32.4,62.5c0-.052.012-.107.069-.122a.117.117,0,0,1,.124.067.449.449,0,0,1,.032.087Z" transform="translate(-24.362 -46.899)" fill="#f9c602"/>
  <path id="Path_3792" data-name="Path 3792" d="M8.409,62.161a.208.208,0,0,1-.119-.055L8.429,62C8.446,62.052,8.414,62.1,8.409,62.161Z" transform="translate(-6.233 -46.618)" fill="#f9c602"/>
  <path id="Path_3793" data-name="Path 3793" d="M10.7,62.384c0,.1-.062.151-.149.124l-.074-.03a.062.062,0,0,1-.022,0c-.047-.072.027-.117.037-.176s.032-.05.069-.032S10.7,62.3,10.7,62.384Z" transform="translate(-7.848 -46.811)" fill="#f9c602"/>
</svg>
