<svg xmlns="http://www.w3.org/2000/svg" width="127.5" height="127.486" viewBox="0 0 127.5 127.486">
  <g id="Phone_icon" transform="translate(2.5 2.499)" opacity="0.15">
    <path id="Path_796" data-name="Path 796" d="M0,15.145a5.65,5.65,0,0,1,3.324-3.351C10.979,8.242,18.6,4.619,26.236,1.024a4.262,4.262,0,0,1,5.907,1.631q7.363,11.391,14.691,22.8A4.244,4.244,0,0,1,46.2,31.3c-2.836,2.858-5.634,5.758-8.562,8.52a5.511,5.511,0,0,0-1.658,5.513A48.816,48.816,0,0,0,46.608,67.5c6,7.334,13.21,13.169,22.074,16.685A79.209,79.209,0,0,0,78.3,86.9a4.406,4.406,0,0,0,4.418-1.484c2.846-2.9,5.739-5.762,8.618-8.634,2.012-2.007,3.819-2.214,6.2-.683q11.264,7.23,22.516,14.481a4.28,4.28,0,0,1,1.73,5.977c-3.67,7.819-7.369,15.624-11.02,23.451a5.4,5.4,0,0,1-3.092,2.785h-2.153a3.783,3.783,0,0,0-.667-.207A107.309,107.309,0,0,1,64.648,109.26,133.778,133.778,0,0,1,14.9,60.562,108.159,108.159,0,0,1,1.122,24C.721,21.768.373,19.531,0,17.3Z" transform="translate(0 -0.311)" fill="#fff" stroke="#6e2b62" stroke-width="5"/>
    <path id="Path_797" data-name="Path 797" d="M184.3,0c27.717.505,52.488,21,58.2,48.146a60.949,60.949,0,0,1,1.408,13.16,4.2,4.2,0,0,1-8.231,1.152,8.438,8.438,0,0,1-.2-2.011A51.87,51.87,0,0,0,223.81,28.254,51.72,51.72,0,0,0,188.784,8.847c-2.014-.248-4.052-.3-6.08-.414A4.257,4.257,0,0,1,178.423,4.2,4.259,4.259,0,0,1,182.861,0c.478,0,.957,0,1.435,0" transform="translate(-121.401)" fill="#fff" stroke="#6e2b62" stroke-width="5"/>
    <path id="Path_798" data-name="Path 798" d="M222.813,104.312a20.8,20.8,0,0,1-.153,2.73,4.173,4.173,0,0,1-8.226-.17c-.293-2.206-.323-4.452-.693-6.642-2.093-12.378-12.723-23-25.119-25.115-1.955-.333-3.954-.417-5.935-.58-3.1-.254-4.993-2.926-4-5.679a4.239,4.239,0,0,1,4.306-2.785c14.958.536,26.44,7.139,34.269,19.893,3.453,5.626,4.988,11.252,5.554,18.347" transform="translate(-121.399 -44.954)" fill="#fff" stroke="#6e2b62" stroke-width="5"/>
  </g>
</svg>
