<svg id="Youtube" xmlns="http://www.w3.org/2000/svg" xmlns:xlink="http://www.w3.org/1999/xlink" width="30.874" height="30.207" viewBox="0 0 30.874 30.207"> <defs> <clipPath id="clip-path"> <rect id="Rectangle_572" data-name="Rectangle 572" width="30.874" height="30.207" fill="none"></rect> </clipPath> </defs> <g id="Group_183" data-name="Group 183" clip-path="url(#clip-path)"> <path id="Path_852" data-name="Path 852" d="M15.377,143.493c-3.229,0-6.459.018-9.688-.005A5.572,5.572,0,0,1,.1,138.941a3.43,3.43,0,0,1-.075-.671c-.006-1.768-.059-3.538.009-5.3a5.527,5.527,0,0,1,5.075-5.213c.243-.019.487-.038.731-.038q9.519,0,19.038,0c2.772.005,5.055,1.541,5.6,4.074a18.518,18.518,0,0,1,.006,7.617,5.271,5.271,0,0,1-5.191,4.067c-3.3.04-6.608.01-9.913.01v.008m2.318-3.647a5.428,5.428,0,0,0,.575.359c1.015.474,2.094.012,2.14-1.026.081-1.82.093-3.65-.008-5.469a1.422,1.422,0,0,0-2.352-1.022l-.487.324v-3.274h-1.5v10.585c.56-.219,1.251.329,1.633-.478m8.167-3.274c0-.752.012-1.426,0-2.1a1.979,1.979,0,0,0-2.107-2.182,2.175,2.175,0,0,0-2.436,2.156c-.036,1.278-.038,2.558,0,3.836a2.126,2.126,0,0,0,2.641,2.173,2.079,2.079,0,0,0,1.834-2.731h-1.5c-.014.277-.018.519-.041.759-.038.385-.218.624-.644.627a.588.588,0,0,1-.669-.6c-.03-.631-.008-1.264-.008-1.936ZM10.4,132.508c0,.5,0,.932,0,1.363,0,1.75-.012,3.5.01,5.251a1.118,1.118,0,0,0,1.706,1.127,8.424,8.424,0,0,0,1.117-.674l.1.671h1.446v-7.731h-1.5c0,.912,0,1.793,0,2.674,0,.979.007,1.957-.005,2.936a1,1,0,0,1-.907.835c-.542-.027-.4-.462-.4-.767-.014-1.694-.006-3.388-.008-5.081,0-.2-.019-.394-.03-.6Zm-4.263-1.263v8.984H7.932v-9.01H9.687v-1.477H4.374v1.5Z" transform="translate(0 -113.293)"></path> <path id="Path_853" data-name="Path 853" d="M51.767.058c.612,0,1.137-.03,1.655.019a.636.636,0,0,1,.407.4c.362,1.223.689,2.456,1.029,3.686a1,1,0,0,0,.282.5q.342-1.291.684-2.583c.043-.163.089-.326.132-.489C56.41-.124,56.41-.124,58.3.108c-.042.162-.073.32-.124.472-.624,1.868-1.265,3.73-1.867,5.605a5.115,5.115,0,0,0-.232,1.427c-.031,1.331-.011,2.663-.011,4.046H54.084c0-1.125-.026-2.249.009-3.37a6.392,6.392,0,0,0-.385-2.366C53.1,4.207,52.541,2.475,51.965.749c-.064-.192-.112-.389-.2-.691" transform="translate(-45.923 0)"></path> <path id="Path_854" data-name="Path 854" d="M116.3,30.877c0,.789.022,1.578-.006,2.366a1.972,1.972,0,0,1-1.639,2.006,4.337,4.337,0,0,1-1.663.026,2.128,2.128,0,0,1-1.757-2.233c-.024-1.5-.022-3,0-4.507a1.893,1.893,0,0,1,1.561-2,4.761,4.761,0,0,1,2.086.035,1.883,1.883,0,0,1,1.42,1.939c.013.788,0,1.577,0,2.366H116.3m-3.269-.052c0,.75,0,1.5,0,2.25,0,.473.183.8.718.808.507.006.773-.242.778-.812.015-1.481,0-2.962.007-4.443a.673.673,0,0,0-.756-.764c-.5-.006-.738.225-.746.768-.012.731,0,1.462,0,2.194" transform="translate(-98.665 -23.453)"></path> <path id="Path_855" data-name="Path 855" d="M172.284,27.895h1.679v8.514H172.3l-.069-.777a10.965,10.965,0,0,1-1.042.69c-1.273.65-2.167.111-2.174-1.306-.01-2.237,0-4.473,0-6.71,0-.127.019-.255.032-.413h1.68c.01.225.027.425.027.625,0,1.861-.007,3.721.008,5.582,0,.363-.138.862.455.926a1.159,1.159,0,0,0,1.046-1.038q.005-2.847,0-5.695c0-.111.013-.223.025-.4" transform="translate(-149.926 -24.744)"></path> <path id="Path_856" data-name="Path 856" d="M155.75,182.886c0-.675.017-1.35-.006-2.024-.016-.466.222-.649.636-.666a.568.568,0,0,1,.638.622c.021.693.012,1.387.013,2.08,0,.712,0,1.425,0,2.137,0,.387-.131.694-.567.664-.387-.027-.73-.16-.717-.675.018-.712,0-1.424,0-2.137" transform="translate(-138.161 -159.852)"></path> <path id="Path_857" data-name="Path 857" d="M202.975,181.975c0-.362-.019-.7,0-1.03a.663.663,0,0,1,1.322-.019c.034.332.007.671.007,1.049Z" transform="translate(-180.054 -159.963)"></path> </g></svg>